<?xml version="1.0" encoding="iso-8859-1"?>
<!-- Generator: Adobe Illustrator 29.5.1, SVG Export Plug-In . SVG Version: 9.03 Build 0)  -->
<svg version="1.1" id="Layer_1" xmlns="http://www.w3.org/2000/svg" xmlns:xlink="http://www.w3.org/1999/xlink" x="0px" y="0px"
	 viewBox="0 0 1075.221 432" style="enable-background:new 0 0 1075.221 432;" xml:space="preserve">
<g>
	<g>
		<path style="fill:#A52B23;" d="M765.179,94.552v128.387c0,8.563-6.942,14.775-15.506,14.775h-4.44
			c-8.563,0-15.506-6.211-15.506-14.775V140.77l-37.519,88.827c-2.57,5.404-8.019,8.116-14.003,8.116h-15.546
			c-5.984,0-11.433-2.712-14.003-8.116l-37.519-88.827v82.168c0,8.563-6.942,14.775-15.506,14.775h-4.44
			c-8.563,0-15.506-6.211-15.506-14.775V94.552c0-13.951,11.285-25.273,25.236-25.319h0c10.497-0.035,19.927,6.412,23.706,16.206
			l45.805,100.184l45.805-100.184c3.778-9.794,13.208-16.24,23.706-16.206l0,0C753.894,69.278,765.179,80.601,765.179,94.552z"/>
		<g>
			<g>
				<path style="fill:#345A2B;" d="M925.762,146.493c43.423,7.015,56.638,69.249,64.71,109.656
					c1.917,9.598-5.419,18.551-15.207,18.551c-2.098,0-4.194,0-6.179,0c-7.203,0-13.455-4.96-15.082-11.977
					c-6.793-29.312-13.22-78.683-46.824-78.469c-44.197,0.282-39.587,47.797-41.727,76.812c-0.569,7.717-7.301,13.637-15.529,13.634
					c-1.606-0.001-3.255,0-4.887,0c-7.942,0.001-14.38-6.436-14.38-14.378V86.14c0-9.337,7.569-16.906,16.906-16.906l0,0
					c10.149,0,18.533,8.127,18.533,18.276l0.012,84.357c0.967-1.951,50.033-71.117,65.755-95.069
					c3.103-4.727,8.368-7.566,14.022-7.565c0.174,0,0.35,0,0.527,0c13.987-0.03,24.185,14.069,15.712,26.327L925.762,146.493z"/>
			</g>
		</g>
		<g>
			<g>
				<path style="fill:#345A2B;" d="M109.386,106.808v41.229c0,1.208,0.979,2.187,2.187,2.188l110.571,0.063
					c24.701,0,27.357,35.418,0,35.418l-110.568-0.063c-1.209-0.001-2.189,0.979-2.189,2.188v69.155
					c0,9.767-7.991,17.758-17.758,17.758h0c-9.772,0-17.693-7.922-17.693-17.694V95.505c0-14.51,11.763-26.273,26.273-26.273h128.44
					c10.05,0,18.197,8.147,18.197,18.197v1.295c-0.232,10.137-7.145,15.959-15.959,15.959l-119.31-0.063
					C110.366,104.62,109.386,105.6,109.386,106.808z"/>
			</g>
		</g>
		<g>
			<g>
				<path style="fill:#345A2B;" d="M815.658,136.337v123.804c0,8.563-6.068,14.632-14.632,14.632h-5.328
					c-8.563,0-15.506-6.942-15.506-15.506v-122.95c0-10.035,8.135-18.17,18.17-18.17l0,0
					C807.193,118.148,815.66,123.761,815.658,136.337z"/>
				<path style="fill:#345A2B;" d="M798.363,70.097c-10.035,0-18.17,8.135-18.17,18.17c0,10.035,8.135,18.17,18.17,18.17
					c10.035,0,18.17-8.135,18.17-18.17C816.532,78.232,808.398,70.097,798.363,70.097z"/>
			</g>
		</g>
		<g>
			<path style="fill:#345A2B;" d="M528.327,80.521c-28.872,0.782-39.836,16.346-39.836,16.346l-0.001-11.666
				c0-15.969-17.725-15.969-17.725-15.969c-9.811,0-17.727,7.703-17.727,15.969l0.001,138.714c0,7.62,6.942,13.798,15.506,13.798
				h4.44c9.865,0,15.505-6.178,15.505-13.798V151.51c-0.053-6.186,2.491-21.896,16.797-32.648c14.367-10.798,28.978-6.62,31.23-5.82
				c15.775,5.599,24.296-1.955,24.151-14.664c-0.087-7.703-4.715-11.2-10.608-13.766C543.228,81.636,535.778,80.319,528.327,80.521z
				"/>
		</g>
		<path style="fill:#A52B23;" d="M747.453,243.176c-9.302-2.829-19.12,2.424-21.943,11.721
			c-18.382,60.53-80.354,102.805-150.706,102.805c-46.828,0-90.646-18.455-120.216-50.632c-21.151-23.015-33.619-51.4-36.823-83.294
			c-0.083-1.005-0.97-15.152-0.729-22.533c0.163-3.155,0.923-31.757,0.997-33.219c0,0,0-33.895,0-33.968
			c0-3.433-0.621-7.414-1.862-11.944c-1.244-4.529-3.253-9.204-6.027-14.025c-2.777-4.821-6.375-9.569-10.793-14.245
			c-4.42-4.674-9.826-8.857-16.217-12.546c-6.394-3.688-13.826-6.666-22.299-8.931c-8.475-2.263-18.117-3.397-28.927-3.397
			c-6.065,0-12.438,0.641-19.121,1.918c-6.684,1.279-13.368,3.27-20.053,5.971c-6.684,2.704-13.186,6.174-19.505,10.411
			c-2.164,1.451-4.265,3-6.305,4.648c-6.328,5.113-6.471,14.73-0.435,20.183v0c2.599,2.348,5.922,3.525,9.233,3.48
			c0.009,0,0.019,0,0.029,0c0.361-0.006,0.721-0.027,1.08-0.062c3.132-0.278,6.766-1.777,8.93-3.388
			c14.32-10.658,51.931-19.299,76.18-9.682c3.554,1.754,6.827,3.707,9.741,5.913c1.392,1.055,2.692,2.141,3.918,3.253
			c4.838,5.372,7.859,12.596,8.15,22.08c-5.002-0.046-10.11-0.075-15.41-0.075c-6.683,0-13.242,0.054-19.669,0.165
			c-6.429,0.109-12.547,0.292-18.353,0.548c-5.808,0.257-10.941,0.567-15.395,0.931l-1.535,0.109
			c-2.777,0.22-6.264,0.548-10.464,0.986c-4.202,0.438-8.656,1.206-13.369,2.301c-4.711,1.096-9.422,2.668-14.135,4.712
			c-4.712,2.046-8.95,4.766-12.711,8.163c-3.763,3.397-6.831,7.598-9.205,12.601c-2.374,5.005-3.561,11.086-3.561,18.245
			c0,4.311,0.785,8.711,2.357,13.204c1.57,4.493,3.853,8.821,6.849,12.985c2.994,4.163,6.629,8.054,10.902,11.67
			c4.274,3.617,9.094,6.758,14.464,9.423c5.369,2.668,11.049,4.674,17.039,6.027c5.989,1.35,12.054,2.027,18.191,2.027h2.739
			c7.303-0.219,14.3-1.115,20.984-2.685c6.685-1.57,13.002-3.725,18.957-6.465c5.953-2.739,11.487-5.971,16.601-9.697
			c1.004-0.732,1.975-1.489,2.942-2.249c1.979,43.771,17.868,82.865,46.72,114.258c36.214,39.406,89.473,62.006,146.119,62.006
			c85.71,0,161.526-52.538,184.369-127.763C761.996,255.823,756.749,245.999,747.453,243.176z M323.907,211.416
			c-6.867,0-13.516-1.132-19.942-3.397c-6.43-2.263-12.311-5.808-17.643-10.629c-2.338-2.337-4.218-4.728-5.642-7.177
			c-1.425-2.447-2.137-5.057-2.137-7.834c0-3.433,0.548-6.372,1.643-8.821c1.095-2.446,3.031-4.51,5.808-6.191
			c2.776-1.679,6.537-3.03,11.286-4.054c4.748-1.022,10.81-1.863,18.19-2.52l1.643-0.109c4.383-0.365,9.496-0.658,15.341-0.877
			c5.843-0.22,12.015-0.383,18.518-0.494c6.501-0.109,13.13-0.164,19.888-0.164c3.788,0,7.481,0.013,11.098,0.036l-0.041,1.218
			c0,25.392-16.766,38.109-26.547,43.371c-2.994,1.505-6.099,2.818-9.328,3.916C338.735,210.175,331.358,211.416,323.907,211.416z"
			/>
	</g>
</g>
</svg>
